<svg
  width="135"
  height="92"
  viewBox="0 0 135 92"
  fill="none"
  xmlns="http://www.w3.org/2000/svg"
>
  <path
    d="M75.4964 0H18.2386C13.5985 0 9.14848 1.8383 5.86745 5.11048C2.58642 8.38267 0.743164 12.8207 0.743164 17.4483V74.5517C0.743164 79.1793 2.58642 83.6173 5.86745 86.8895C9.14848 90.1617 13.5985 92 18.2386 92H75.4964C80.1365 92 84.5865 90.1617 87.8676 86.8895C91.1486 83.6173 92.9919 79.1793 92.9919 74.5517V17.4483C92.9919 12.8207 91.1486 8.38267 87.8676 5.11048C84.5865 1.8383 80.1365 0 75.4964 0V0Z"
    fill="#246BFD"
  />
  <path
    d="M124.74 16.4486C123.937 16.6206 123.173 16.9436 122.49 17.4003L108.851 25.6803C106.714 26.9892 104.959 28.8354 103.762 31.0337C102.533 33.2788 101.89 35.7962 101.893 38.3541V53.6768C101.892 56.2405 102.537 58.7633 103.77 61.0131C104.972 63.2173 106.736 65.0666 108.883 66.3744L122.625 74.6544C123.515 75.2027 124.508 75.5618 125.544 75.7093C126.573 75.8525 127.622 75.7796 128.621 75.4951C129.632 75.2041 130.573 74.7132 131.389 74.0517C132.216 73.3741 132.902 72.5416 133.409 71.601C134.099 70.3127 134.46 68.8742 134.458 67.4134V24.5065C134.456 23.2632 134.185 22.0351 133.663 20.9058C133.147 19.7957 132.393 18.8127 131.452 18.0268C130.531 17.258 129.441 16.7148 128.271 16.4406C127.111 16.163 125.9 16.1657 124.74 16.4486Z"
    fill="#246BFD"
  />
  <path
    d="M34.2753 75.7808C30.0022 75.7808 26.7337 74.5409 24.4699 72.0612C22.2061 69.5814 21.0742 66.0812 21.0742 61.5605V31.8191C21.0742 27.2878 22.2061 23.785 24.4699 21.3105C26.7337 18.836 30.0022 17.5961 34.2753 17.5908C38.5166 17.5908 41.7824 18.8307 44.0728 21.3105C46.3631 23.7902 47.495 27.2931 47.4685 31.8191V61.5605C47.4685 66.0812 46.3366 69.5814 44.0728 72.0612C41.809 74.5409 38.5431 75.7808 34.2753 75.7808ZM34.2753 67.6991C37.2707 67.6991 38.7711 65.8485 38.7764 62.1474V31.2481C38.7764 27.5469 37.276 25.6963 34.2753 25.6963C31.2746 25.6963 29.7716 27.5469 29.7663 31.2481V62.1236C29.7663 65.8459 31.2693 67.7044 34.2753 67.6991Z"
    fill="white"
  />
  <path
    d="M63.9461 31.8187H54.8564V25.5135C56.852 25.571 58.8458 25.3521 60.781 24.8632C62.1791 24.5258 63.4511 23.7965 64.4471 22.7615C65.5003 21.4633 66.3086 19.9853 66.8328 18.3994H72.6779V74.9715H63.9461V31.8187Z"
    fill="white"
  />
</svg>
